<svg width="20" height="17" viewBox="0 0 20 17" fill="none" xmlns="http://www.w3.org/2000/svg">
<g clip-path="url(#clip0_11_56)">
<path d="M2.16024 10.0939C2.16024 10.8576 2.32786 11.4439 2.54695 11.7986C2.83419 12.2632 3.26262 12.4601 3.6994 12.4601C4.26276 12.4601 4.77813 12.3203 5.77132 10.9466C6.56698 9.84565 7.50452 8.30023 8.13535 7.33139L9.20364 5.68999C9.94575 4.55006 10.8047 3.28284 11.7895 2.42389C12.5935 1.72282 13.4608 1.33334 14.3337 1.33334C15.7991 1.33334 17.195 2.18255 18.2633 3.77526C19.4325 5.51959 20 7.7167 20 9.98405C20 11.3319 19.7343 12.3223 19.2822 13.1048C18.8455 13.8615 17.9942 14.6175 16.5621 14.6175V12.4601C17.7883 12.4601 18.0943 11.3333 18.0943 10.0439C18.0943 8.20634 17.6659 6.16711 16.7221 4.71002C16.0523 3.6765 15.1843 3.04498 14.2294 3.04498C13.1965 3.04498 12.3654 3.82395 11.4314 5.21287C10.9348 5.95081 10.425 6.8501 9.85255 7.86484L9.22242 8.98113C7.9566 11.2255 7.63597 11.7367 7.00306 12.5804C5.89373 14.0576 4.94645 14.6175 3.6994 14.6175C2.22006 14.6175 1.2846 13.977 0.705244 13.0116C0.232299 12.225 0 11.1928 0 10.0167L2.16024 10.0939Z" fill="#0081FB"/>
<path d="M1.7033 3.92758C2.6937 2.40094 4.12297 1.33334 5.76228 1.33334C6.71164 1.33334 7.65545 1.61432 8.64098 2.41902C9.71902 3.29884 10.868 4.74758 12.3014 7.13526L12.8154 7.99212C14.0562 10.0592 14.7621 11.1226 15.1753 11.6241C15.7066 12.2681 16.0787 12.4601 16.5621 12.4601C17.7883 12.4601 18.0943 11.3333 18.0943 10.0439L20 9.98405C20 11.3319 19.7343 12.3223 19.2822 13.1048C18.8455 13.8615 17.9942 14.6175 16.5621 14.6175C15.6719 14.6175 14.8832 14.4242 14.011 13.6014C13.3405 12.9699 12.5567 11.848 11.9537 10.8395L10.16 7.84328C9.25998 6.3396 8.43441 5.21844 7.9566 4.71072C7.44262 4.16475 6.78189 3.5054 5.7275 3.5054C4.87411 3.5054 4.14939 4.10424 3.54291 5.02022L1.7033 3.92758Z" fill="url(#paint0_linear_11_56)"/>
<path d="M5.7275 3.5054C4.87411 3.5054 4.14939 4.10424 3.54291 5.02022C2.68535 6.31456 2.16024 8.2425 2.16024 10.0939C2.16024 10.8576 2.32786 11.4439 2.54695 11.7986L0.705244 13.0116C0.232299 12.225 0 11.1928 0 10.0167C0 7.87806 0.587008 5.64896 1.7033 3.92758C2.6937 2.40094 4.12297 1.33334 5.76228 1.33334L5.7275 3.5054Z" fill="url(#paint1_linear_11_56)"/>
</g>
<defs>
<linearGradient id="paint0_linear_11_56" x1="4.33579" y1="7.63115" x2="18.1068" y2="8.32666" gradientUnits="userSpaceOnUse">
<stop stop-color="#0064E1"/>
<stop offset="0.4" stop-color="#0064E1"/>
<stop offset="0.83" stop-color="#0073EE"/>
<stop offset="1" stop-color="#0082FB"/>
</linearGradient>
<linearGradient id="paint1_linear_11_56" x1="2.88079" y1="11.0009" x2="2.88079" y2="5.92368" gradientUnits="userSpaceOnUse">
<stop stop-color="#0082FB"/>
<stop offset="1" stop-color="#0064E0"/>
</linearGradient>
<clipPath id="clip0_11_56">
<rect width="20" height="13.2842" fill="white" transform="translate(0 1.33334)"/>
</clipPath>
</defs>
</svg>
